<svg id="clouds" data-name="clouds" xmlns="http://www.w3.org/2000/svg" xmlns:xlink="http://www.w3.org/1999/xlink"
  viewBox="0 0 1000 1000">
  <defs>
    <style>
      .svg-clouds-clip {
        fill: none;
      }

      .svg-clouds-wrap {
        clip-path: url(#clip-path);
      }

      .svg-clouds {
        fill: #eef0f8;
        stroke: #eef0f8;
        stroke-linecap: round;
        stroke-linejoin: round;
        stroke-width: 6px;
      }
    </style>
    <clipPath id="clip-path">
      <circle class="svg-clouds-clip" cx="500" cy="500" r="447.5" />
    </clipPath>
  </defs>
  <g class="svg-clouds-wrap">
    <path class="svg-clouds"
      d="M188.36,556.72c65.67-33.29,111.36-32.13,150.73,3.68,42.72,38.85,49.58,81.13,23.38,150,40.5-.88,73.48,11.67,89,52,13.25,34.48,4.08,64.54-21.35,91.76,5.34,5.34,10.38,10.47,15.52,15.49,31.42,30.63,32.78,75.34,3.2,106.1-30.46,31.68-76.49,32.55-107.92,1.25q-145-144.37-289.53-289.17c-40.28-40.28-42.75-99.05-6-137.49,36.36-38,95.74-37.15,137.35,1.92C184.52,553.92,186.56,555.3,188.36,556.72Z" />
    <path class="svg-clouds"
      d="M797.77,435.39c-65.68,33.29-111.36,32.13-150.74-3.68-42.71-38.85-49.57-81.13-23.37-150-40.5.88-73.48-11.68-89-52C521.43,195.23,530.59,165.17,556,138c-5.35-5.34-10.38-10.48-15.53-15.5-31.42-30.63-32.77-75.33-3.2-106.1,30.46-31.68,76.5-32.54,107.92-1.25q145,144.38,289.53,289.17c40.28,40.28,42.76,99.05,6,137.49-36.36,38-95.75,37.15-137.35-1.92C801.6,438.19,799.57,436.81,797.77,435.39Z" />
  </g>
</svg>
