<?xml version="1.0" standalone="no"?>
<!DOCTYPE svg PUBLIC "-//W3C//DTD SVG 20010904//EN"
 "http://www.w3.org/TR/2001/REC-SVG-20010904/DTD/svg10.dtd">
<svg version="1.0" xmlns="http://www.w3.org/2000/svg"
 width="1000.000000pt" height="1000.000000pt" viewBox="0 0 1000.000000 1000.000000"
 preserveAspectRatio="xMidYMid meet">
<metadata>
Created by potrace 1.14, written by Peter Selinger 2001-2017
</metadata>
<g transform="translate(0.000000,1000.000000) scale(0.100000,-0.100000)"
fill="#000000" stroke="none">
<path d="M4827 9474 c-1 -1 -56 -5 -123 -8 -66 -4 -131 -8 -145 -11 -13 -2
-49 -6 -79 -9 -122 -14 -151 -18 -305 -47 -316 -60 -562 -131 -850 -247 -408
-164 -791 -390 -1150 -679 -21 -17 -125 -106 -184 -158 -159 -140 -403 -406
-554 -605 -31 -41 -60 -79 -64 -85 -26 -33 -177 -263 -220 -335 -76 -130 -107
-185 -108 -190 -1 -3 -24 -50 -52 -105 -123 -243 -237 -539 -309 -802 -14 -51
-27 -101 -29 -111 -2 -9 -11 -48 -20 -87 -23 -99 -40 -183 -49 -245 -26 -182
-37 -263 -41 -310 -34 -394 -24 -783 30 -1120 3 -14 7 -42 10 -64 4 -21 9 -48
11 -60 2 -11 7 -37 10 -56 11 -68 73 -316 107 -430 74 -247 166 -480 279 -705
64 -127 116 -223 140 -257 10 -14 18 -28 18 -31 0 -3 24 -42 53 -88 589 -938
1492 -1621 2549 -1928 111 -32 327 -85 388 -95 38 -6 82 -14 120 -21 14 -3 43
-7 65 -11 22 -3 51 -7 65 -10 14 -2 52 -6 85 -10 33 -3 71 -7 85 -10 143 -22
738 -22 880 0 14 3 52 7 85 10 33 4 74 8 90 11 17 3 44 7 60 10 17 3 50 8 75
11 64 9 328 67 440 97 403 109 879 321 1220 545 47 31 95 62 108 69 12 6 29
19 38 28 9 8 25 20 37 26 11 7 26 16 31 21 6 4 56 43 111 85 231 176 463 397
680 648 81 93 282 364 340 456 142 228 157 254 265 474 100 203 150 324 222
535 88 261 159 558 193 820 3 25 8 63 11 86 32 233 37 775 9 957 -2 12 -6 53
-10 91 -4 38 -8 79 -10 90 -4 24 -12 78 -20 134 -19 125 -94 440 -141 587 -33
100 -92 270 -109 310 -190 449 -354 739 -603 1065 -199 260 -398 471 -667 705
-285 248 -690 503 -1071 672 -179 80 -436 177 -529 199 -5 2 -50 14 -100 28
-80 23 -239 60 -365 86 -110 22 -268 44 -395 54 -33 3 -87 8 -120 12 -55 5
-482 13 -488 8z"/>
</g>
</svg>
